{"asset":{"version":"2.0","generator":"Blockbench 4.2.5 glTF exporter"},"scenes":[{"nodes":[21],"name":"blockbench_export"}],"scene":0,"nodes":[{"rotation":[0,0,-0.3826834323650898,0.9238795325112867],"translation":[-0.03093592167691206,-0.8485281374238572,-0.18750000000000022],"name":"cube","mesh":0},{"translation":[-0.0022613340328496573,0.05309655991044604,-0.8248947096157171],"name":"rack","children":[0]},{"rotation":[0.39874906892524614,0,0,0.917060074385124],"translation":[0,-0.046875,-0.06874999999999998],"name":"cube","mesh":1},{"translation":[-0.0019472557097617166,0.026443422486589152,-0.22333220961571754],"name":"trigger","children":[2]},{"translation":[-0.03437499999999999,-0.8124999999999997,-0.56875],"name":"cube","mesh":2},{"translation":[0.0011777442902382723,0.017068422486588464,-0.4577072096157174],"name":"eject","children":[4]},{"rotation":[0,0,0.3826834323650898,0.9238795325112867],"translation":[-0.0019472557097617166,0.0483184224865888,-1.1202072096157174],"name":"cube","mesh":3},{"rotation":[0,0,0.3826834323650898,0.9238795325112867],"translation":[-0.0019472557097617166,0.04206842248658904,-1.5827072096157173],"name":"cube","mesh":4},{"translation":[-0.03319725570976172,-0.7954315775134112,-1.0264572096157174],"name":"cube","mesh":5},{"translation":[-0.03297404915419601,-0.7720570031039418,-1.157707203655253],"name":"cube","mesh":6},{"rotation":[0,0,0.3826834323650898,0.9238795325112867],"translation":[-0.0019472557097617166,0.1108184224865888,-1.1827072096157174],"name":"cube","mesh":7},{"translation":[-0.03319725570976172,-0.7954315775134112,-1.0264572096157174],"name":"cube","mesh":8},{"translation":[0.0011777442902382793,0.06394342248658824,-0.17020720961571734],"name":"cube","mesh":9},{"rotation":[-0.5299192642332049,0,0,0.848048096156426],"translation":[0.0011777487605866485,0.08921788519573548,-0.1672700630526972],"name":"cube","mesh":10},{"rotation":[-0.48098876891938763,0,0,0.8767267557075077],"translation":[-0.008197257199877836,0.04351067928748209,-0.01374440664209553],"name":"cube","mesh":11},{"translation":[-0.03319725570976172,-0.7954315775134112,-1.0264572096157174],"name":"cube","mesh":12},{"translation":[-0.03319725570976172,-0.7954315775134112,-1.0264572096157174],"name":"cube","mesh":13},{"rotation":[-0.3826834323650898,0,0,0.9238795325112867],"translation":[-0.008197257199877836,0.05494345609072393,0.0022483287953258824],"name":"cube","mesh":14},{"rotation":[-0.573576436351046,0,0,0.8191520442889918],"translation":[0.0011777413100060447,-0.01863998353405172,0.08186450833607051],"name":"cube","mesh":15},{"rotation":[0,0,0.3624380382837016,0.9320078692827986],"translation":[-0.0019472557097617166,0.1108184224865888,-1.1670822096157174],"name":"cube","mesh":16},{"translation":[0.03319725570976172,0.4204315775134112,0.6514572096157174],"name":"mossberg","children":[1,3,5,6,7,8,9,10,11,12,13,14,15,16,17,18,19]},{"children":[20]}],"bufferViews":[{"buffer":0,"byteOffset":0,"byteLength":288,"target":34962,"byteStride":12},{"buffer":0,"byteOffset":288,"byteLength":288,"target":34962,"byteStride":12},{"buffer":0,"byteOffset":576,"byteLength":192,"target":34962,"byteStride":8},{"buffer":0,"byteOffset":768,"byteLength":72,"target":34963},{"buffer":0,"byteOffset":840,"byteLength":288,"target":34962,"byteStride":12},{"buffer":0,"byteOffset":1128,"byteLength":288,"target":34962,"byteStride":12},{"buffer":0,"byteOffset":1416,"byteLength":192,"target":34962,"byteStride":8},{"buffer":0,"byteOffset":1608,"byteLength":60,"target":34963},{"buffer":0,"byteOffset":1668,"byteLength":288,"target":34962,"byteStride":12},{"buffer":0,"byteOffset":1956,"byteLength":288,"target":34962,"byteStride":12},{"buffer":0,"byteOffset":2244,"byteLength":192,"target":34962,"byteStride":8},{"buffer":0,"byteOffset":2436,"byteLength":60,"target":34963},{"buffer":0,"byteOffset":2496,"byteLength":288,"target":34962,"byteStride":12},{"buffer":0,"byteOffset":2784,"byteLength":288,"target":34962,"byteStride":12},{"buffer":0,"byteOffset":3072,"byteLength":192,"target":34962,"byteStride":8},{"buffer":0,"byteOffset":3264,"byteLength":72,"target":34963},{"buffer":0,"byteOffset":3336,"byteLength":288,"target":34962,"byteStride":12},{"buffer":0,"byteOffset":3624,"byteLength":288,"target":34962,"byteStride":12},{"buffer":0,"byteOffset":3912,"byteLength":192,"target":34962,"byteStride":8},{"buffer":0,"byteOffset":4104,"byteLength":72,"target":34963},{"buffer":0,"byteOffset":4176,"byteLength":288,"target":34962,"byteStride":12},{"buffer":0,"byteOffset":4464,"byteLength":288,"target":34962,"byteStride":12},{"buffer":0,"byteOffset":4752,"byteLength":192,"target":34962,"byteStride":8},{"buffer":0,"byteOffset":4944,"byteLength":72,"target":34963},{"buffer":0,"byteOffset":5016,"byteLength":288,"target":34962,"byteStride":12},{"buffer":0,"byteOffset":5304,"byteLength":288,"target":34962,"byteStride":12},{"buffer":0,"byteOffset":5592,"byteLength":192,"target":34962,"byteStride":8},{"buffer":0,"byteOffset":5784,"byteLength":60,"target":34963},{"buffer":0,"byteOffset":5844,"byteLength":288,"target":34962,"byteStride":12},{"buffer":0,"byteOffset":6132,"byteLength":288,"target":34962,"byteStride":12},{"buffer":0,"byteOffset":6420,"byteLength":192,"target":34962,"byteStride":8},{"buffer":0,"byteOffset":6612,"byteLength":72,"target":34963},{"buffer":0,"byteOffset":6684,"byteLength":288,"target":34962,"byteStride":12},{"buffer":0,"byteOffset":6972,"byteLength":288,"target":34962,"byteStride":12},{"buffer":0,"byteOffset":7260,"byteLength":192,"target":34962,"byteStride":8},{"buffer":0,"byteOffset":7452,"byteLength":60,"target":34963},{"buffer":0,"byteOffset":7512,"byteLength":288,"target":34962,"byteStride":12},{"buffer":0,"byteOffset":7800,"byteLength":288,"target":34962,"byteStride":12},{"buffer":0,"byteOffset":8088,"byteLength":192,"target":34962,"byteStride":8},{"buffer":0,"byteOffset":8280,"byteLength":72,"target":34963},{"buffer":0,"byteOffset":8352,"byteLength":288,"target":34962,"byteStride":12},{"buffer":0,"byteOffset":8640,"byteLength":288,"target":34962,"byteStride":12},{"buffer":0,"byteOffset":8928,"byteLength":192,"target":34962,"byteStride":8},{"buffer":0,"byteOffset":9120,"byteLength":72,"target":34963},{"buffer":0,"byteOffset":9192,"byteLength":288,"target":34962,"byteStride":12},{"buffer":0,"byteOffset":9480,"byteLength":288,"target":34962,"byteStride":12},{"buffer":0,"byteOffset":9768,"byteLength":192,"target":34962,"byteStride":8},{"buffer":0,"byteOffset":9960,"byteLength":72,"target":34963},{"buffer":0,"byteOffset":10032,"byteLength":288,"target":34962,"byteStride":12},{"buffer":0,"byteOffset":10320,"byteLength":288,"target":34962,"byteStride":12},{"buffer":0,"byteOffset":10608,"byteLength":192,"target":34962,"byteStride":8},{"buffer":0,"byteOffset":10800,"byteLength":60,"target":34963},{"buffer":0,"byteOffset":10860,"byteLength":288,"target":34962,"byteStride":12},{"buffer":0,"byteOffset":11148,"byteLength":288,"target":34962,"byteStride":12},{"buffer":0,"byteOffset":11436,"byteLength":192,"target":34962,"byteStride":8},{"buffer":0,"byteOffset":11628,"byteLength":60,"target":34963},{"buffer":0,"byteOffset":11688,"byteLength":288,"target":34962,"byteStride":12},{"buffer":0,"byteOffset":11976,"byteLength":288,"target":34962,"byteStride":12},{"buffer":0,"byteOffset":12264,"byteLength":192,"target":34962,"byteStride":8},{"buffer":0,"byteOffset":12456,"byteLength":72,"target":34963},{"buffer":0,"byteOffset":12528,"byteLength":288,"target":34962,"byteStride":12},{"buffer":0,"byteOffset":12816,"byteLength":288,"target":34962,"byteStride":12},{"buffer":0,"byteOffset":13104,"byteLength":192,"target":34962,"byteStride":8},{"buffer":0,"byteOffset":13296,"byteLength":72,"target":34963},{"buffer":0,"byteOffset":13368,"byteLength":288,"target":34962,"byteStride":12},{"buffer":0,"byteOffset":13656,"byteLength":288,"target":34962,"byteStride":12},{"buffer":0,"byteOffset":13944,"byteLength":192,"target":34962,"byteStride":8},{"buffer":0,"byteOffset":14136,"byteLength":48,"target":34963}],"buffers":[{"byteLength":14184,"uri":"data:application/octet-stream;base64,"}],"accessors":[{"bufferView":0,"componentType":5126,"count":24,"max":[-0.5375000238418579,0.6625000238418579,0.3687500059604645],"min":[-0.6187499761581421,0.581250011920929,0.0062500000931322575],"type":"VEC3"},{"bufferView":1,"componentType":5126,"count":24,"max":[1,1,1],"min":[-1,-1,-1],"type":"VEC3"},{"bufferView":2,"componentType":5126,"count":24,"max":[0.5,0.75],"min":[0.1875,0.5],"type":"VEC2"},{"bufferView":3,"componentType":5123,"count":36,"max":[23],"min":[0],"type":"SCALAR"},{"bufferView":4,"componentType":5126,"count":24,"max":[0.0000625000029685907,0.08749999850988388,0.02812499925494194],"min":[0,0.02500000037252903,0.00937500037252903],"type":"VEC3"},{"bufferView":5,"componentType":5126,"count":24,"max":[1,1,1],"min":[-1,-1,-1],"type":"VEC3"},{"bufferView":6,"componentType":5126,"count":24,"max":[1,1],"min":[0,0],"type":"VEC2"},{"bufferView":7,"componentType":5123,"count":30,"max":[23],"min":[4],"type":"SCALAR"},{"bufferView":8,"componentType":5126,"count":24,"max":[0.07656250149011612,0.8125625252723694,0.637499988079071],"min":[-0.0078125,0.8125,0.5],"type":"VEC3"},{"bufferView":9,"componentType":5126,"count":24,"max":[1,1,1],"min":[-1,-1,-1],"type":"VEC3"},{"bufferView":10,"componentType":5126,"count":24,"max":[1,1],"min":[0,0],"type":"VEC2"},{"bufferView":11,"componentType":5123,"count":30,"max":[23],"min":[0],"type":"SCALAR"},{"bufferView":12,"componentType":5126,"count":24,"max":[0.03125,0.03125,0.5375000238418579],"min":[-0.03125,-0.03125,-0.26249998807907104],"type":"VEC3"},{"bufferView":13,"componentType":5126,"count":24,"max":[1,1,1],"min":[-1,-1,-1],"type":"VEC3"},{"bufferView":14,"componentType":5126,"count":24,"max":[0.5,0.9375],"min":[0.0625,0.46875],"type":"VEC2"},{"bufferView":15,"componentType":5123,"count":36,"max":[23],"min":[0],"type":"SCALAR"},{"bufferView":16,"componentType":5126,"count":24,"max":[0.04374999925494194,0.04374999925494194,0.20624999701976776],"min":[-0.03750000149011612,-0.03750000149011612,0.14374999701976776],"type":"VEC3"},{"bufferView":17,"componentType":5126,"count":24,"max":[1,1,1],"min":[-1,-1,-1],"type":"VEC3"},{"bufferView":18,"componentType":5126,"count":24,"max":[0.5,0.875],"min":[0.125,0.5],"type":"VEC2"},{"bufferView":19,"componentType":5123,"count":36,"max":[23],"min":[0],"type":"SCALAR"},{"bufferView":20,"componentType":5126,"count":24,"max":[0.07656250149011612,0.949999988079071,0.824999988079071],"min":[-0.0078125,0.8062499761581421,0.4375],"type":"VEC3"},{"bufferView":21,"componentType":5126,"count":24,"max":[1,1,1],"min":[-1,-1,-1],"type":"VEC3"},{"bufferView":22,"componentType":5126,"count":24,"max":[0.4375,0.875],"min":[0.125,0.53125],"type":"VEC2"},{"bufferView":23,"componentType":5123,"count":36,"max":[23],"min":[0],"type":"SCALAR"},{"bufferView":24,"componentType":5126,"count":24,"max":[0.037562500685453415,0.9624999761581421,-0.28125],"min":[0.03750000149011612,0.9312499761581421,-0.3125],"type":"VEC3"},{"bufferView":25,"componentType":5126,"count":24,"max":[1,1,1],"min":[-1,-1,-1],"type":"VEC3"},{"bufferView":26,"componentType":5126,"count":24,"max":[1,1],"min":[0,0],"type":"VEC2"},{"bufferView":27,"componentType":5123,"count":30,"max":[23],"min":[4],"type":"SCALAR"},{"bufferView":28,"componentType":5126,"count":24,"max":[0.03750000149011612,0.03125,0.59375],"min":[-0.02500000037252903,-0.03125,-0.22499999403953552],"type":"VEC3"},{"bufferView":29,"componentType":5126,"count":24,"max":[1,1,1],"min":[-1,-1,-1],"type":"VEC3"},{"bufferView":30,"componentType":5126,"count":24,"max":[0.5,1],"min":[0,0.5],"type":"VEC2"},{"bufferView":31,"componentType":5123,"count":36,"max":[23],"min":[0],"type":"SCALAR"},{"bufferView":32,"componentType":5126,"count":24,"max":[0.031312499195337296,0.7593749761581421,0.8249581456184387],"min":[0.03125,0.7413506507873535,0.71875],"type":"VEC3"},{"bufferView":33,"componentType":5126,"count":24,"max":[1,1,1],"min":[-1,-1,-1],"type":"VEC3"},{"bufferView":34,"componentType":5126,"count":24,"max":[1,1],"min":[0,0],"type":"VEC2"},{"bufferView":35,"componentType":5123,"count":30,"max":[23],"min":[4],"type":"SCALAR"},{"bufferView":36,"componentType":5126,"count":24,"max":[0.0390625037252903,0.038568414747714996,0.07548177987337112],"min":[-0.0390625,-0.05312500149011612,-0.03125],"type":"VEC3"},{"bufferView":37,"componentType":5126,"count":24,"max":[1,1,1],"min":[-1,-1,-1],"type":"VEC3"},{"bufferView":38,"componentType":5126,"count":24,"max":[0.5,0.96875],"min":[0.125,0.5],"type":"VEC2"},{"bufferView":39,"componentType":5123,"count":36,"max":[23],"min":[0],"type":"SCALAR"},{"bufferView":40,"componentType":5126,"count":24,"max":[0.04062499850988388,0.05937499925494194,0.04374999925494194],"min":[-0.04062499850988388,-0.05937499925494194,-0.04374999925494194],"type":"VEC3"},{"bufferView":41,"componentType":5126,"count":24,"max":[1,1,1],"min":[-1,-1,-1],"type":"VEC3"},{"bufferView":42,"componentType":5126,"count":24,"max":[0.5,0.75],"min":[0.375,0.5],"type":"VEC2"},{"bufferView":43,"componentType":5123,"count":36,"max":[23],"min":[0],"type":"SCALAR"},{"bufferView":44,"componentType":5126,"count":24,"max":[0.05156250298023224,0.10000000149011612,0.0062500000931322575],"min":[-0.03281249850988388,-0.21250000596046448,-0.07500000298023224],"type":"VEC3"},{"bufferView":45,"componentType":5126,"count":24,"max":[1,1,1],"min":[-1,-1,-1],"type":"VEC3"},{"bufferView":46,"componentType":5126,"count":24,"max":[0.5,0.6875],"min":[0.25,0.5],"type":"VEC2"},{"bufferView":47,"componentType":5123,"count":36,"max":[23],"min":[0],"type":"SCALAR"},{"bufferView":48,"componentType":5126,"count":24,"max":[0.031312499195337296,0.8062499761581421,0.7187080979347229],"min":[0.03125,0.7413506507873535,0.699999988079071],"type":"VEC3"},{"bufferView":49,"componentType":5126,"count":24,"max":[1,1,1],"min":[-1,-1,-1],"type":"VEC3"},{"bufferView":50,"componentType":5126,"count":24,"max":[1,1],"min":[0,0],"type":"VEC2"},{"bufferView":51,"componentType":5123,"count":30,"max":[23],"min":[4],"type":"SCALAR"},{"bufferView":52,"componentType":5126,"count":24,"max":[0.031312499195337296,0.8062499761581421,0.8437080979347229],"min":[0.03125,0.7413506507873535,0.824999988079071],"type":"VEC3"},{"bufferView":53,"componentType":5126,"count":24,"max":[1,1,1],"min":[-1,-1,-1],"type":"VEC3"},{"bufferView":54,"componentType":5126,"count":24,"max":[1,1],"min":[0,0],"type":"VEC2"},{"bufferView":55,"componentType":5123,"count":30,"max":[23],"min":[4],"type":"SCALAR"},{"bufferView":56,"componentType":5126,"count":24,"max":[0.05000000447034836,-0.02503972500562668,-0.046621549874544144],"min":[-0.03125,-0.22047150135040283,-0.07500000298023224],"type":"VEC3"},{"bufferView":57,"componentType":5126,"count":24,"max":[1,1,1],"min":[-1,-1,-1],"type":"VEC3"},{"bufferView":58,"componentType":5126,"count":24,"max":[0.53125,0.9375],"min":[0.3125,0.6875],"type":"VEC2"},{"bufferView":59,"componentType":5123,"count":36,"max":[23],"min":[0],"type":"SCALAR"},{"bufferView":60,"componentType":5126,"count":24,"max":[0.04062500223517418,0.09771588444709778,0.014189224690198898],"min":[-0.04062499850988388,-0.09771588444709778,-0.014189224690198898],"type":"VEC3"},{"bufferView":61,"componentType":5126,"count":24,"max":[1,1,1],"min":[-1,-1,-1],"type":"VEC3"},{"bufferView":62,"componentType":5126,"count":24,"max":[0.53125,0.875],"min":[0.125,0.46875],"type":"VEC2"},{"bufferView":63,"componentType":5123,"count":36,"max":[23],"min":[0],"type":"SCALAR"},{"bufferView":64,"componentType":5126,"count":24,"max":[0.03750000149011612,0.03125,-0.24062499403953552],"min":[-0.02500000037252903,-0.03125,-0.3031249940395355],"type":"VEC3"},{"bufferView":65,"componentType":5126,"count":24,"max":[1,1,1],"min":[-1,-1,-1],"type":"VEC3"},{"bufferView":66,"componentType":5126,"count":24,"max":[1,1],"min":[0,0],"type":"VEC2"},{"bufferView":67,"componentType":5123,"count":24,"max":[15],"min":[0],"type":"SCALAR"}],"materials":[{"pbrMetallicRoughness":{"metallicFactor":0,"roughnessFactor":1,"baseColorTexture":{"index":0}},"alphaMode":"MASK","alphaCutoff":0.05,"doubleSided":true}],"textures":[{"sampler":0,"source":0,"name":"mossberg"}],"samplers":[{"magFilter":9728,"minFilter":9728,"wrapS":33071,"wrapT":33071}],"images":[{"mimeType":"image/png","uri":"data:image/png;base64,"}],"meshes":[{"primitives":[{"mode":4,"attributes":{"POSITION":0,"NORMAL":1,"TEXCOORD_0":2},"indices":3,"material":0}]},{"primitives":[{"mode":4,"attributes":{"POSITION":4,"NORMAL":5,"TEXCOORD_0":6},"indices":7,"material":0}]},{"primitives":[{"mode":4,"attributes":{"POSITION":8,"NORMAL":9,"TEXCOORD_0":10},"indices":11,"material":0}]},{"primitives":[{"mode":4,"attributes":{"POSITION":12,"NORMAL":13,"TEXCOORD_0":14},"indices":15,"material":0}]},{"primitives":[{"mode":4,"attributes":{"POSITION":16,"NORMAL":17,"TEXCOORD_0":18},"indices":19,"material":0}]},{"primitives":[{"mode":4,"attributes":{"POSITION":20,"NORMAL":21,"TEXCOORD_0":22},"indices":23,"material":0}]},{"primitives":[{"mode":4,"attributes":{"POSITION":24,"NORMAL":25,"TEXCOORD_0":26},"indices":27,"material":0}]},{"primitives":[{"mode":4,"attributes":{"POSITION":28,"NORMAL":29,"TEXCOORD_0":30},"indices":31,"material":0}]},{"primitives":[{"mode":4,"attributes":{"POSITION":32,"NORMAL":33,"TEXCOORD_0":34},"indices":35,"material":0}]},{"primitives":[{"mode":4,"attributes":{"POSITION":36,"NORMAL":37,"TEXCOORD_0":38},"indices":39,"material":0}]},{"primitives":[{"mode":4,"attributes":{"POSITION":40,"NORMAL":41,"TEXCOORD_0":42},"indices":43,"material":0}]},{"primitives":[{"mode":4,"attributes":{"POSITION":44,"NORMAL":45,"TEXCOORD_0":46},"indices":47,"material":0}]},{"primitives":[{"mode":4,"attributes":{"POSITION":48,"NORMAL":49,"TEXCOORD_0":50},"indices":51,"material":0}]},{"primitives":[{"mode":4,"attributes":{"POSITION":52,"NORMAL":53,"TEXCOORD_0":54},"indices":55,"material":0}]},{"primitives":[{"mode":4,"attributes":{"POSITION":56,"NORMAL":57,"TEXCOORD_0":58},"indices":59,"material":0}]},{"primitives":[{"mode":4,"attributes":{"POSITION":60,"NORMAL":61,"TEXCOORD_0":62},"indices":63,"material":0}]},{"primitives":[{"mode":4,"attributes":{"POSITION":64,"NORMAL":65,"TEXCOORD_0":66},"indices":67,"material":0}]}]}